<?xml version="1.0" standalone="no"?>
<!DOCTYPE svg PUBLIC "-//W3C//DTD SVG 20010904//EN"
 "http://www.w3.org/TR/2001/REC-SVG-20010904/DTD/svg10.dtd">
<svg version="1.0" xmlns="http://www.w3.org/2000/svg"
 width="551.000000pt" height="280.000000pt" viewBox="0 0 551.000000 280.000000"
 preserveAspectRatio="xMidYMid meet">
<metadata>
Created by potrace 1.15, written by Peter Selinger 2001-2017
</metadata>
<g transform="translate(0.000000,280.000000) scale(0.100000,-0.100000)"
fill="#000000" stroke="none">
<path d="M1186 2474 c-376 -68 -694 -317 -851 -666 l-39 -88 -61 0 c-50 0 -69
-5 -103 -27 -46 -30 -92 -107 -92 -152 0 -88 62 -171 143 -193 l46 -12 6 -55
c34 -328 131 -546 335 -751 458 -462 1207 -454 1652 19 258 273 368 656 293
1016 -8 38 -15 73 -15 77 0 15 100 57 164 69 52 10 80 10 132 0 68 -12 164
-54 164 -71 0 -5 -7 -40 -15 -78 -103 -493 147 -1011 600 -1244 193 -99 348
-133 570 -125 233 8 408 63 605 192 162 106 331 310 410 493 53 124 99 328
100 442 0 10 17 20 47 28 107 29 171 155 128 253 -20 46 -34 62 -79 93 -31 21
-51 26 -100 26 l-61 1 -62 127 c-154 313 -414 522 -767 615 -67 17 -110 21
-256 21 -184 1 -234 -6 -370 -52 -207 -69 -408 -211 -551 -390 l-34 -43 -65
30 c-112 52 -180 66 -330 66 -150 0 -218 -14 -330 -66 l-65 -30 -35 43 c-191
236 -437 384 -718 433 -105 19 -291 18 -396 -1z m387 -390 c155 -39 312 -142
413 -268 181 -226 217 -551 89 -812 -96 -197 -275 -345 -491 -405 -61 -18
-105 -23 -194 -23 -143 0 -223 19 -350 81 -81 40 -109 61 -190 142 -105 107
-153 182 -197 315 -24 72 -27 97 -27 221 -1 120 2 151 22 215 79 251 264 442
503 519 132 43 293 49 422 15z m2686 0 c37 -9 109 -36 161 -62 82 -39 108 -59
190 -141 159 -160 230 -328 230 -546 0 -347 -246 -658 -585 -741 -104 -26
-278 -24 -378 4 -341 96 -567 391 -567 742 0 382 272 698 655 761 67 11 214 2
294 -17z"/>
</g>
</svg>
